<?xml version="1.0" encoding="utf-8"?>
<!-- Generator: Adobe Illustrator 26.2.1, SVG Export Plug-In . SVG Version: 6.00 Build 0)  -->
<svg version="1.1" id="Layer_1" xmlns="http://www.w3.org/2000/svg" xmlns:xlink="http://www.w3.org/1999/xlink" x="0px" y="0px"
	 viewBox="0 0 225.74 292.14" style="enable-background:new 0 0 225.74 292.14;" xml:space="preserve">
<style type="text/css">
	.st0{fill:#FFFFFF;stroke:#000000;stroke-width:0.5;stroke-miterlimit:10;}
</style>
<g>
	<g>
		<path class="st0" d="M170.15,135.88c-0.44,4.79-2.76,8.45-6.65,11.02c-0.34,0.23-0.69,0.44-1.05,0.65
			c-8.97,5.13-17.96,10.24-26.92,15.39c-4.63,2.66-6,8.43-3.03,12.73c0.55,0.78,1.27,1.46,1.98,2.1c1.4,1.25,2.82,2.47,4.28,3.64
			c2.68,2.15,5.87,2.24,8.61,0.3c2.76-1.95,3.77-5.08,2.64-8.3c-0.94-2.7-1.94-5.38-2.95-8.17c2.31-1.33,4.54-2.6,6.88-3.94
			c0.46,1.26,0.92,2.47,1.34,3.69c0.91,2.62,2.01,5.19,2.65,7.88c1.95,8.14-4.09,16.71-12.39,17.85c-4.5,0.61-8.49-0.48-11.94-3.41
			c-2.23-1.89-4.59-3.7-6.5-5.89c-6.77-7.77-4.6-20.01,4.35-25.19c3.09-1.79,6.2-3.54,9.29-5.31c0.28-0.16,0.55-0.33,0.92-0.54
			c-0.57-1.57-1.14-3.12-1.7-4.68c-4.71-12.99-9.45-25.96-14.12-38.97c-1.84-5.14-7.7-6.04-11.13-3.28
			c-1.08,0.87-1.75,2.02-2.22,3.31c-4.4,12.14-8.81,24.28-13.21,36.42c-0.86,2.38-1.73,4.76-2.61,7.21
			c2.48,1.42,4.91,2.81,7.34,4.21c2.13,1.22,4.32,2.34,6.12,4.08c7.02,6.8,6.66,18.4-0.79,24.74c-1.63,1.38-3.22,2.83-4.91,4.14
			c-2.86,2.23-5.93,3.39-9.16,3.39c-1.8,0-3.65-0.36-5.54-1.1c-5.26-2.07-8.48-5.98-9.47-11.61c-0.42-2.38-0.25-4.74,0.55-7.02
			c1.14-3.28,2.34-6.54,3.56-9.92c2.32,1.33,4.59,2.62,6.9,3.95c-0.95,2.62-1.79,5.21-2.82,7.72c-2.1,5.13,1.64,9.73,6.31,10.11
			c2.01,0.16,3.71-0.68,5.2-1.97c1.36-1.16,2.71-2.33,4.08-3.48c4.96-4.18,4.33-11.49-1.3-14.72c-7.26-4.17-14.54-8.31-21.8-12.48
			c-2.09-1.2-4.26-2.32-6.23-3.68c-0.33-0.21-0.65-0.44-0.96-0.68c-6.69-5.05-7.56-15.11-2-21.4c0.91-1.04,1.9-1.91,2.96-2.63
			c2.39-1.62,5.15-2.43,8.27-2.44c5.22-0.01,10.44-0.01,15.66,0.02c0.67,0,0.96-0.21,1.18-0.83c1.79-5.01,3.58-10.02,5.44-15
			c3.88-10.35,16.82-13.09,24.59-5.21c1.58,1.61,2.65,3.55,3.41,5.67c1.74,4.87,3.53,9.72,5.26,14.6c0.22,0.62,0.53,0.76,1.14,0.76
			c5.19-0.02,10.38-0.01,15.57-0.01c3.09,0,5.92,0.88,8.27,2.39C167.96,124.86,170.69,130.04,170.15,135.88z"/>
	</g>
	<path d="M140.03,124.67c0.54,0,0.93,0,1.31,0c5.16,0,10.32,0,15.48,0c4.33,0,7.48,2.37,8.59,6.45c1.09,4.01-0.41,7.66-4.12,9.83
		c-4.17,2.43-8.37,4.8-12.7,7.28C145.74,140.39,142.92,132.62,140.03,124.67z"/>
	<path d="M98.4,124.67c-0.54,0-0.93,0-1.31,0c-5.16,0-10.32,0-15.48,0c-4.33,0-7.48,2.37-8.59,6.45c-1.09,4.01,0.41,7.66,4.12,9.83
		c4.17,2.43,8.37,4.8,12.7,7.28C92.69,140.39,95.51,132.62,98.4,124.67z"/>
</g>
</svg>
